<svg width="20" height="20" viewBox="0 0 20 20" fill="none" xmlns="http://www.w3.org/2000/svg">
<path d="M18.145 14.154C18.145 15.404 17.782 16.411 17.057 17.096C16.33 17.782 15.323 18.146 14.113 18.146H5.887C4.677 18.146 3.669 17.782 2.943 17.096C2.218 16.371 1.853 15.363 1.853 14.113V5.846C1.853 4.636 5.117 0.726 5.842 0C2.337 0.002 0 2.34 0 5.846V14.112C0 15.846 0.564 17.339 1.693 18.427C2.782 19.475 4.233 20 5.887 20H14.113C15.846 20 17.298 19.435 18.346 18.427C19.435 17.379 20 15.887 20 14.153V5.846C20 4.153 19.435 2.701 18.387 1.653C17.339 0.564 15.845 0 14.153 0H5.845L2.943 2.904C3.629 2.218 4.677 1.855 5.887 1.855H14.193C15.403 1.855 16.411 2.218 17.137 2.945C17.823 3.67 18.225 4.678 18.225 5.847V14.154H18.145ZM15.282 5.967C15.4383 5.97157 15.594 5.94473 15.7397 5.88807C15.8855 5.8314 16.0184 5.74607 16.1306 5.63711C16.2428 5.52815 16.332 5.39779 16.3929 5.25374C16.4538 5.1097 16.4852 4.95489 16.4852 4.7985C16.4852 4.64211 16.4538 4.4873 16.3929 4.34326C16.332 4.19921 16.2428 4.06885 16.1306 3.95989C16.0184 3.85093 15.8855 3.7656 15.7397 3.70893C15.594 3.65227 15.4383 3.62543 15.282 3.63C14.978 3.63889 14.6895 3.7659 14.4776 3.98407C14.2657 4.20223 14.1472 4.49438 14.1472 4.7985C14.1472 5.10262 14.2657 5.39477 14.4776 5.61293C14.6895 5.8311 14.978 5.95811 15.282 5.967V5.967ZM10 13.307C9.12414 13.3031 8.28529 12.9534 7.66596 12.334C7.04663 11.7147 6.69695 10.8759 6.693 10C6.69695 9.12414 7.04663 8.28529 7.66596 7.66596C8.28529 7.04663 9.12414 6.69695 10 6.693C10.8759 6.69695 11.7147 7.04663 12.334 7.66596C12.9534 8.28529 13.3031 9.12414 13.307 10C13.3028 10.8757 12.953 11.7143 12.3337 12.3334C11.7144 12.9525 10.8757 13.3021 10 13.306V13.307ZM10 4.839C7.178 4.839 4.839 7.137 4.839 10C4.83715 10.6783 4.96938 11.3502 5.2281 11.9772C5.48681 12.6042 5.86689 13.1739 6.3465 13.6535C6.82611 14.1331 7.39579 14.5132 8.02279 14.7719C8.64978 15.0306 9.32173 15.1628 10 15.161C12.863 15.161 15.16 12.822 15.16 10.001C15.16 7.177 12.822 4.839 10 4.839V4.839Z" fill="black"/>
</svg>
